# Blender 3.6.3
# www.blender.org
mtllib madera.mtl
o Cylinder.003
v -1.055411 1.666154 0.509620
v 1.180740 1.373326 -0.303276
v -1.074413 1.685056 0.450540
v 1.161738 1.392228 -0.362356
v -1.095092 1.693686 0.390544
v 1.141058 1.400858 -0.422352
v -1.116655 1.691712 0.331939
v 1.119495 1.398884 -0.480957
v -1.138273 1.679211 0.276976
v 1.097878 1.386382 -0.535920
v -1.159114 1.656661 0.227768
v 1.077036 1.363833 -0.585128
v -1.178378 1.624930 0.186205
v 1.057772 1.332102 -0.626691
v -1.195325 1.585238 0.153886
v 1.040825 1.292410 -0.659010
v -1.209303 1.539109 0.132051
v 1.026847 1.246281 -0.680845
v -1.219776 1.488317 0.121540
v 1.016375 1.195489 -0.691356
v -1.226340 1.434813 0.122757
v 1.009811 1.141985 -0.690139
v -1.228743 1.380654 0.135655
v 1.007407 1.087826 -0.677241
v -1.226894 1.327920 0.159739
v 1.009257 1.035092 -0.653157
v -1.220862 1.278639 0.194083
v 1.015288 0.985810 -0.618813
v -1.210881 1.234703 0.237367
v 1.025269 0.941875 -0.575529
v -1.197333 1.197802 0.287927
v 1.038817 0.904974 -0.524969
v -1.180740 1.169354 0.343822
v 1.055411 0.876526 -0.469074
v -1.161738 1.150452 0.402902
v 1.074413 0.857624 -0.409994
v -1.141058 1.141822 0.462897
v 1.095092 0.848994 -0.349999
v -1.119495 1.143796 0.521503
v 1.116655 0.850968 -0.291394
v -1.097878 1.156298 0.576465
v 1.138273 0.863469 -0.236431
v -1.077036 1.178847 0.625674
v 1.159114 0.886019 -0.187222
v -1.057772 1.210578 0.667236
v 1.178378 0.917750 -0.145660
v -1.040825 1.250270 0.699556
v 1.195325 0.957442 -0.113340
v -1.026847 1.296399 0.721391
v 1.209303 1.003571 -0.091505
v -1.016375 1.347191 0.731902
v 1.219776 1.054363 -0.080994
v -1.009811 1.400695 0.730685
v 1.226340 1.107867 -0.082212
v -1.007407 1.454854 0.717786
v 1.228743 1.162026 -0.095110
v -1.009257 1.507588 0.693702
v 1.226894 1.214760 -0.119194
v -1.015288 1.556870 0.659359
v 1.220862 1.264041 -0.153537
v -1.025269 1.600805 0.616075
v 1.210881 1.307977 -0.196821
v -1.038817 1.637706 0.565514
v 1.197333 1.344878 -0.247382
v 0.000000 1.393067 -1.202189
v 0.000000 1.684151 1.177346
v 0.064669 1.387931 -1.201561
v 0.064669 1.679015 1.177974
v 0.126853 1.372722 -1.199700
v 0.126853 1.663806 1.179834
v 0.184161 1.348024 -1.196679
v 0.184161 1.639108 1.182856
v 0.234393 1.314786 -1.192613
v 0.234393 1.605870 1.186922
v 0.275617 1.274285 -1.187659
v 0.275617 1.565369 1.191876
v 0.306249 1.228077 -1.182006
v 0.306249 1.519161 1.197529
v 0.325112 1.177940 -1.175873
v 0.325112 1.469023 1.203662
v 0.331482 1.125798 -1.169495
v 0.331482 1.416883 1.210040
v 0.325112 1.073657 -1.163116
v 0.325112 1.364740 1.216419
v 0.306249 1.023519 -1.156983
v 0.306249 1.314603 1.222552
v 0.275617 0.977311 -1.151331
v 0.275617 1.268395 1.228204
v 0.234393 0.936810 -1.146376
v 0.234393 1.227894 1.233159
v 0.184161 0.903572 -1.142310
v 0.184161 1.194656 1.237225
v 0.126853 0.878874 -1.139289
v 0.126853 1.169958 1.240246
v 0.064669 0.863665 -1.137429
v 0.064669 1.154750 1.242106
v 0.000000 0.858529 -1.136800
v 0.000000 1.149613 1.242735
v -0.064669 0.863665 -1.137429
v -0.064669 1.154750 1.242106
v -0.126853 0.878874 -1.139289
v -0.126853 1.169958 1.240246
v -0.184161 0.903572 -1.142310
v -0.184161 1.194656 1.237225
v -0.234393 0.936810 -1.146376
v -0.234393 1.227894 1.233159
v -0.275617 0.977311 -1.151331
v -0.275617 1.268395 1.228204
v -0.306249 1.023519 -1.156983
v -0.306249 1.314603 1.222552
v -0.325112 1.073657 -1.163116
v -0.325112 1.364740 1.216419
v -0.331482 1.125798 -1.169495
v -0.331482 1.416883 1.210040
v -0.325112 1.177940 -1.175873
v -0.325112 1.469023 1.203662
v -0.306249 1.228077 -1.182006
v -0.306249 1.519161 1.197529
v -0.275617 1.274285 -1.187659
v -0.275617 1.565369 1.191876
v -0.234393 1.314786 -1.192613
v -0.234393 1.605870 1.186922
v -0.184161 1.348024 -1.196679
v -0.184161 1.639108 1.182856
v -0.126853 1.372722 -1.199700
v -0.126853 1.663806 1.179834
v -0.064669 1.387931 -1.201561
v -0.064669 1.679015 1.177974
v -0.791811 1.739482 -0.794042
v 0.650292 1.270113 1.062553
v -0.741668 1.764626 -0.826634
v 0.700436 1.295257 1.029961
v -0.690732 1.779832 -0.862354
v 0.751372 1.310463 0.994241
v -0.640961 1.784515 -0.899829
v 0.801142 1.315146 0.956766
v -0.594269 1.778496 -0.937619
v 0.847835 1.309128 0.918976
v -0.552448 1.762007 -0.974272
v 0.889656 1.292638 0.882323
v -0.517107 1.735680 -1.008379
v 0.924997 1.266311 0.848216
v -0.489603 1.700527 -1.038629
v 0.952501 1.231158 0.817966
v -0.470994 1.657900 -1.063861
v 0.971110 1.188531 0.792735
v -0.461994 1.609437 -1.083103
v 0.980110 1.140068 0.773492
v -0.462950 1.556999 -1.095618
v 0.979154 1.087630 0.760978
v -0.473824 1.502602 -1.100923
v 0.968279 1.033233 0.755672
v -0.494200 1.448337 -1.098816
v 0.947904 0.978968 0.757780
v -0.523293 1.396289 -1.089376
v 0.918811 0.926920 0.767219
v -0.559986 1.348458 -1.072967
v 0.882118 0.879089 0.783628
v -0.602868 1.306682 -1.050220
v 0.839236 0.837313 0.806376
v -0.650292 1.272567 -1.022008
v 0.791811 0.803198 0.834587
v -0.700436 1.247423 -0.989416
v 0.741668 0.778054 0.867180
v -0.751372 1.232217 -0.953696
v 0.690732 0.762848 0.902900
v -0.801142 1.227534 -0.916221
v 0.640961 0.758165 0.940375
v -0.847835 1.233552 -0.878431
v 0.594269 0.764184 0.978165
v -0.889656 1.250042 -0.841778
v 0.552448 0.780674 1.014818
v -0.924997 1.276369 -0.807671
v 0.517107 0.807000 1.048924
v -0.952501 1.311522 -0.777421
v 0.489603 0.842153 1.079175
v -0.971110 1.354149 -0.752189
v 0.470994 0.884780 1.104406
v -0.980110 1.402612 -0.732947
v 0.461994 0.933243 1.123649
v -0.979154 1.455050 -0.720432
v 0.462950 0.985681 1.136163
v -0.968279 1.509447 -0.715127
v 0.473824 1.040078 1.141469
v -0.947904 1.563712 -0.717234
v 0.494200 1.094343 1.139361
v -0.918811 1.615760 -0.726674
v 0.523293 1.146391 1.129922
v -0.882118 1.663591 -0.743083
v 0.559986 1.194222 1.113513
v -0.839236 1.705367 -0.765830
v 0.602868 1.235998 1.090765
vn 0.2100 0.9488 0.2360
vn 0.1601 0.9833 0.0863
vn 0.1039 0.9920 -0.0716
vn 0.0410 0.9707 -0.2369
vn -0.0282 0.9132 -0.4065
vn -0.1020 0.8129 -0.5734
vn -0.1764 0.6657 -0.7251
vn -0.2452 0.4745 -0.8454
vn -0.3012 0.2524 -0.9195
vn -0.3392 0.0202 -0.9405
vn -0.3578 -0.2013 -0.9118
vn -0.3590 -0.3981 -0.8442
vn -0.3463 -0.5645 -0.7493
vn -0.3231 -0.7004 -0.6364
vn -0.2918 -0.8081 -0.5116
vn -0.2539 -0.8904 -0.3778
vn -0.2100 -0.9488 -0.2360
vn -0.1601 -0.9833 -0.0863
vn -0.1039 -0.9920 0.0716
vn -0.0410 -0.9707 0.2369
vn 0.0282 -0.9132 0.4065
vn 0.1020 -0.8129 0.5734
vn 0.1764 -0.6657 0.7251
vn 0.2452 -0.4745 0.8454
vn 0.3012 -0.2524 0.9195
vn 0.3392 -0.0202 0.9405
vn 0.3578 0.2013 0.9118
vn 0.3590 0.3981 0.8442
vn 0.3463 0.5645 0.7493
vn 0.3231 0.7004 0.6364
vn 0.9328 -0.1222 -0.3391
vn 0.2918 0.8081 0.5116
vn 0.2539 0.8904 0.3778
vn -0.9328 0.1222 0.3391
vn 0.0798 0.9894 -0.1210
vn 0.2392 0.9638 -0.1179
vn 0.3983 0.9105 -0.1114
vn 0.5547 0.8259 -0.1010
vn 0.7035 0.7055 -0.0863
vn 0.8354 0.5456 -0.0667
vn 0.9368 0.3473 -0.0425
vn 0.9927 0.1195 -0.0146
vn 0.9927 -0.1195 0.0146
vn 0.9368 -0.3473 0.0425
vn 0.8354 -0.5456 0.0667
vn 0.7035 -0.7055 0.0863
vn 0.5547 -0.8259 0.1010
vn 0.3983 -0.9105 0.1114
vn 0.2392 -0.9638 0.1179
vn 0.0798 -0.9894 0.1210
vn -0.0798 -0.9894 0.1210
vn -0.2392 -0.9638 0.1179
vn -0.3983 -0.9105 0.1114
vn -0.5547 -0.8259 0.1010
vn -0.7035 -0.7055 0.0863
vn -0.8354 -0.5456 0.0667
vn -0.9368 -0.3473 0.0425
vn -0.9927 -0.1195 0.0146
vn -0.9927 0.1195 -0.0146
vn -0.9368 0.3473 -0.0425
vn -0.8354 0.5456 -0.0667
vn -0.7035 0.7055 -0.0863
vn -0.5547 0.8259 -0.1010
vn -0.3983 0.9105 -0.1114
vn -0.0000 0.1214 0.9926
vn -0.2392 0.9638 -0.1179
vn -0.0798 0.9894 -0.1210
vn -0.0000 -0.1214 -0.9926
vn -0.2018 0.9008 0.3845
vn -0.0747 0.9515 0.2985
vn 0.0594 0.9778 0.2011
vn 0.1998 0.9756 0.0915
vn 0.3439 0.9385 -0.0298
vn 0.4857 0.8593 -0.1600
vn 0.6148 0.7325 -0.2923
vn 0.7172 0.5592 -0.4157
vn 0.7805 0.3505 -0.5177
vn 0.7986 0.1259 -0.5885
vn 0.7746 -0.0939 -0.6254
vn 0.7174 -0.2939 -0.6316
vn 0.6371 -0.4673 -0.6130
vn 0.5415 -0.6128 -0.5755
vn 0.4356 -0.7322 -0.5235
vn 0.3221 -0.8277 -0.4595
vn 0.2018 -0.9008 -0.3845
vn 0.0747 -0.9515 -0.2985
vn -0.0594 -0.9778 -0.2011
vn -0.1998 -0.9756 -0.0915
vn -0.3439 -0.9385 0.0299
vn -0.4857 -0.8593 0.1600
vn -0.6148 -0.7325 0.2923
vn -0.7172 -0.5592 0.4157
vn -0.7805 -0.3505 0.5177
vn -0.7986 -0.1259 0.5885
vn -0.7746 0.0939 0.6254
vn -0.7174 0.2939 0.6316
vn -0.6371 0.4673 0.6130
vn -0.5415 0.6128 0.5755
vn 0.6016 -0.1958 0.7745
vn -0.4356 0.7322 0.5235
vn -0.3221 0.8277 0.4595
vn -0.6016 0.1958 -0.7745
vt 1.000000 0.500000
vt 1.000000 1.000000
vt 0.968750 1.000000
vt 0.968750 0.500000
vt 0.937500 1.000000
vt 0.937500 0.500000
vt 0.906250 1.000000
vt 0.906250 0.500000
vt 0.875000 1.000000
vt 0.875000 0.500000
vt 0.843750 1.000000
vt 0.843750 0.500000
vt 0.812500 1.000000
vt 0.812500 0.500000
vt 0.781250 1.000000
vt 0.781250 0.500000
vt 0.750000 1.000000
vt 0.750000 0.500000
vt 0.718750 1.000000
vt 0.718750 0.500000
vt 0.687500 1.000000
vt 0.687500 0.500000
vt 0.656250 1.000000
vt 0.656250 0.500000
vt 0.625000 1.000000
vt 0.625000 0.500000
vt 0.593750 1.000000
vt 0.593750 0.500000
vt 0.562500 1.000000
vt 0.562500 0.500000
vt 0.531250 1.000000
vt 0.531250 0.500000
vt 0.500000 1.000000
vt 0.500000 0.500000
vt 0.468750 1.000000
vt 0.468750 0.500000
vt 0.437500 1.000000
vt 0.437500 0.500000
vt 0.406250 1.000000
vt 0.406250 0.500000
vt 0.375000 1.000000
vt 0.375000 0.500000
vt 0.343750 1.000000
vt 0.343750 0.500000
vt 0.312500 1.000000
vt 0.312500 0.500000
vt 0.281250 1.000000
vt 0.281250 0.500000
vt 0.250000 1.000000
vt 0.250000 0.500000
vt 0.218750 1.000000
vt 0.218750 0.500000
vt 0.187500 1.000000
vt 0.187500 0.500000
vt 0.156250 1.000000
vt 0.156250 0.500000
vt 0.125000 1.000000
vt 0.125000 0.500000
vt 0.093750 1.000000
vt 0.093750 0.500000
vt 0.062500 1.000000
vt 0.062500 0.500000
vt 0.296822 0.485388
vt 0.250000 0.490000
vt 0.203178 0.485388
vt 0.158156 0.471731
vt 0.116663 0.449553
vt 0.080294 0.419706
vt 0.050447 0.383337
vt 0.028269 0.341844
vt 0.014612 0.296822
vt 0.010000 0.250000
vt 0.014612 0.203178
vt 0.028269 0.158156
vt 0.050447 0.116663
vt 0.080294 0.080294
vt 0.116663 0.050447
vt 0.158156 0.028269
vt 0.203178 0.014612
vt 0.250000 0.010000
vt 0.296822 0.014612
vt 0.341844 0.028269
vt 0.383337 0.050447
vt 0.419706 0.080294
vt 0.449553 0.116663
vt 0.471731 0.158156
vt 0.485388 0.203178
vt 0.490000 0.250000
vt 0.485388 0.296822
vt 0.471731 0.341844
vt 0.449553 0.383337
vt 0.419706 0.419706
vt 0.383337 0.449553
vt 0.341844 0.471731
vt 0.031250 1.000000
vt 0.031250 0.500000
vt 0.000000 1.000000
vt 0.000000 0.500000
vt 0.750000 0.490000
vt 0.796822 0.485388
vt 0.841844 0.471731
vt 0.883337 0.449553
vt 0.919706 0.419706
vt 0.949553 0.383337
vt 0.971731 0.341844
vt 0.985388 0.296822
vt 0.990000 0.250000
vt 0.985388 0.203178
vt 0.971731 0.158156
vt 0.949553 0.116663
vt 0.919706 0.080294
vt 0.883337 0.050447
vt 0.841844 0.028269
vt 0.796822 0.014612
vt 0.750000 0.010000
vt 0.703178 0.014612
vt 0.658156 0.028269
vt 0.616663 0.050447
vt 0.580294 0.080294
vt 0.550447 0.116663
vt 0.528269 0.158156
vt 0.514612 0.203178
vt 0.510000 0.250000
vt 0.514612 0.296822
vt 0.528269 0.341844
vt 0.550447 0.383337
vt 0.580294 0.419706
vt 0.616663 0.449553
vt 0.658156 0.471731
vt 0.703178 0.485388
s 0
usemtl Material.133
f 1/1/1 2/2/1 4/3/1 3/4/1
f 3/4/2 4/3/2 6/5/2 5/6/2
f 5/6/3 6/5/3 8/7/3 7/8/3
f 7/8/4 8/7/4 10/9/4 9/10/4
f 9/10/5 10/9/5 12/11/5 11/12/5
f 11/12/6 12/11/6 14/13/6 13/14/6
f 13/14/7 14/13/7 16/15/7 15/16/7
f 15/16/8 16/15/8 18/17/8 17/18/8
f 17/18/9 18/17/9 20/19/9 19/20/9
f 19/20/10 20/19/10 22/21/10 21/22/10
f 21/22/11 22/21/11 24/23/11 23/24/11
f 23/24/12 24/23/12 26/25/12 25/26/12
f 25/26/13 26/25/13 28/27/13 27/28/13
f 27/28/14 28/27/14 30/29/14 29/30/14
f 29/30/15 30/29/15 32/31/15 31/32/15
f 31/32/16 32/31/16 34/33/16 33/34/16
f 33/34/17 34/33/17 36/35/17 35/36/17
f 35/36/18 36/35/18 38/37/18 37/38/18
f 37/38/19 38/37/19 40/39/19 39/40/19
f 39/40/20 40/39/20 42/41/20 41/42/20
f 41/42/21 42/41/21 44/43/21 43/44/21
f 43/44/22 44/43/22 46/45/22 45/46/22
f 45/46/23 46/45/23 48/47/23 47/48/23
f 47/48/24 48/47/24 50/49/24 49/50/24
f 49/50/25 50/49/25 52/51/25 51/52/25
f 51/52/26 52/51/26 54/53/26 53/54/26
f 53/54/27 54/53/27 56/55/27 55/56/27
f 55/56/28 56/55/28 58/57/28 57/58/28
f 57/58/29 58/57/29 60/59/29 59/60/29
f 59/60/30 60/59/30 62/61/30 61/62/30
f 4/63/31 2/64/31 64/65/31 62/66/31 60/67/31 58/68/31 56/69/31 54/70/31 52/71/31 50/72/31 48/73/31 46/74/31 44/75/31 42/76/31 40/77/31 38/78/31 36/79/31 34/80/31 32/81/31 30/82/31 28/83/31 26/84/31 24/85/31 22/86/31 20/87/31 18/88/31 16/89/31 14/90/31 12/91/31 10/92/31 8/93/31 6/94/31
f 61/62/32 62/61/32 64/95/32 63/96/32
f 63/96/33 64/95/33 2/97/33 1/98/33
f 1/99/34 3/100/34 5/101/34 7/102/34 9/103/34 11/104/34 13/105/34 15/106/34 17/107/34 19/108/34 21/109/34 23/110/34 25/111/34 27/112/34 29/113/34 31/114/34 33/115/34 35/116/34 37/117/34 39/118/34 41/119/34 43/120/34 45/121/34 47/122/34 49/123/34 51/124/34 53/125/34 55/126/34 57/127/34 59/128/34 61/129/34 63/130/34
usemtl Material.131
f 65/1/35 66/2/35 68/3/35 67/4/35
f 67/4/36 68/3/36 70/5/36 69/6/36
f 69/6/37 70/5/37 72/7/37 71/8/37
f 71/8/38 72/7/38 74/9/38 73/10/38
f 73/10/39 74/9/39 76/11/39 75/12/39
f 75/12/40 76/11/40 78/13/40 77/14/40
f 77/14/41 78/13/41 80/15/41 79/16/41
f 79/16/42 80/15/42 82/17/42 81/18/42
f 81/18/43 82/17/43 84/19/43 83/20/43
f 83/20/44 84/19/44 86/21/44 85/22/44
f 85/22/45 86/21/45 88/23/45 87/24/45
f 87/24/46 88/23/46 90/25/46 89/26/46
f 89/26/47 90/25/47 92/27/47 91/28/47
f 91/28/48 92/27/48 94/29/48 93/30/48
f 93/30/49 94/29/49 96/31/49 95/32/49
f 95/32/50 96/31/50 98/33/50 97/34/50
f 97/34/51 98/33/51 100/35/51 99/36/51
f 99/36/52 100/35/52 102/37/52 101/38/52
f 101/38/53 102/37/53 104/39/53 103/40/53
f 103/40/54 104/39/54 106/41/54 105/42/54
f 105/42/55 106/41/55 108/43/55 107/44/55
f 107/44/56 108/43/56 110/45/56 109/46/56
f 109/46/57 110/45/57 112/47/57 111/48/57
f 111/48/58 112/47/58 114/49/58 113/50/58
f 113/50/59 114/49/59 116/51/59 115/52/59
f 115/52/60 116/51/60 118/53/60 117/54/60
f 117/54/61 118/53/61 120/55/61 119/56/61
f 119/56/62 120/55/62 122/57/62 121/58/62
f 121/58/63 122/57/63 124/59/63 123/60/63
f 123/60/64 124/59/64 126/61/64 125/62/64
f 68/63/65 66/64/65 128/65/65 126/66/65 124/67/65 122/68/65 120/69/65 118/70/65 116/71/65 114/72/65 112/73/65 110/74/65 108/75/65 106/76/65 104/77/65 102/78/65 100/79/65 98/80/65 96/81/65 94/82/65 92/83/65 90/84/65 88/85/65 86/86/65 84/87/65 82/88/65 80/89/65 78/90/65 76/91/65 74/92/65 72/93/65 70/94/65
f 125/62/66 126/61/66 128/95/66 127/96/66
f 127/96/67 128/95/67 66/97/67 65/98/67
f 65/99/68 67/100/68 69/101/68 71/102/68 73/103/68 75/104/68 77/105/68 79/106/68 81/107/68 83/108/68 85/109/68 87/110/68 89/111/68 91/112/68 93/113/68 95/114/68 97/115/68 99/116/68 101/117/68 103/118/68 105/119/68 107/120/68 109/121/68 111/122/68 113/123/68 115/124/68 117/125/68 119/126/68 121/127/68 123/128/68 125/129/68 127/130/68
usemtl Material.132
f 129/1/69 130/2/69 132/3/69 131/4/69
f 131/4/70 132/3/70 134/5/70 133/6/70
f 133/6/71 134/5/71 136/7/71 135/8/71
f 135/8/72 136/7/72 138/9/72 137/10/72
f 137/10/73 138/9/73 140/11/73 139/12/73
f 139/12/74 140/11/74 142/13/74 141/14/74
f 141/14/75 142/13/75 144/15/75 143/16/75
f 143/16/76 144/15/76 146/17/76 145/18/76
f 145/18/77 146/17/77 148/19/77 147/20/77
f 147/20/78 148/19/78 150/21/78 149/22/78
f 149/22/79 150/21/79 152/23/79 151/24/79
f 151/24/80 152/23/80 154/25/80 153/26/80
f 153/26/81 154/25/81 156/27/81 155/28/81
f 155/28/82 156/27/82 158/29/82 157/30/82
f 157/30/83 158/29/83 160/31/83 159/32/83
f 159/32/84 160/31/84 162/33/84 161/34/84
f 161/34/85 162/33/85 164/35/85 163/36/85
f 163/36/86 164/35/86 166/37/86 165/38/86
f 165/38/87 166/37/87 168/39/87 167/40/87
f 167/40/88 168/39/88 170/41/88 169/42/88
f 169/42/89 170/41/89 172/43/89 171/44/89
f 171/44/90 172/43/90 174/45/90 173/46/90
f 173/46/91 174/45/91 176/47/91 175/48/91
f 175/48/92 176/47/92 178/49/92 177/50/92
f 177/50/93 178/49/93 180/51/93 179/52/93
f 179/52/94 180/51/94 182/53/94 181/54/94
f 181/54/95 182/53/95 184/55/95 183/56/95
f 183/56/96 184/55/96 186/57/96 185/58/96
f 185/58/97 186/57/97 188/59/97 187/60/97
f 187/60/98 188/59/98 190/61/98 189/62/98
f 132/63/99 130/64/99 192/65/99 190/66/99 188/67/99 186/68/99 184/69/99 182/70/99 180/71/99 178/72/99 176/73/99 174/74/99 172/75/99 170/76/99 168/77/99 166/78/99 164/79/99 162/80/99 160/81/99 158/82/99 156/83/99 154/84/99 152/85/99 150/86/99 148/87/99 146/88/99 144/89/99 142/90/99 140/91/99 138/92/99 136/93/99 134/94/99
f 189/62/100 190/61/100 192/95/100 191/96/100
f 191/96/101 192/95/101 130/97/101 129/98/101
f 129/99/102 131/100/102 133/101/102 135/102/102 137/103/102 139/104/102 141/105/102 143/106/102 145/107/102 147/108/102 149/109/102 151/110/102 153/111/102 155/112/102 157/113/102 159/114/102 161/115/102 163/116/102 165/117/102 167/118/102 169/119/102 171/120/102 173/121/102 175/122/102 177/123/102 179/124/102 181/125/102 183/126/102 185/127/102 187/128/102 189/129/102 191/130/102
