# Blender 3.6.3
# www.blender.org
mtllib urna2.mtl
o Cube.007
v -0.753844 -0.019051 -0.715317
v -0.753844 0.145041 -0.715317
v -0.753844 -0.019051 -2.749431
v -0.753844 0.145041 -2.749431
v 0.753844 -0.019051 -0.715317
v 0.753844 0.145041 -0.715317
v 0.753844 -0.019051 -2.749431
v 0.753844 0.145041 -2.749431
v 0.632198 2.681195 -2.428533
v 0.632198 0.206385 -2.428533
v 0.632198 2.681195 -1.060687
v 0.632198 0.206385 -1.060687
v -0.632198 2.681195 -2.428533
v -0.632198 0.206385 -2.428533
v -0.632198 2.681195 -1.060687
v -0.632198 0.206385 -1.060687
v -0.689573 0.121186 -0.929925
v -0.689573 0.285279 -0.929925
v -0.689573 0.121185 -2.559295
v -0.689573 0.285279 -2.559295
v 0.689573 0.121186 -0.929925
v 0.689573 0.285279 -0.929925
v 0.689573 0.121185 -2.559295
v 0.689573 0.285279 -2.559295
v -0.726274 0.045673 -0.832763
v -0.726274 0.209767 -0.832763
v -0.726274 0.045673 -2.656459
v -0.726274 0.209766 -2.656459
v 0.726274 0.045673 -0.832763
v 0.726274 0.209767 -0.832763
v 0.726274 0.045673 -2.656459
v 0.726274 0.209766 -2.656459
v -0.689573 2.580727 -0.929925
v -0.689573 2.744821 -0.929925
v -0.689573 2.580727 -2.559295
v -0.689573 2.744821 -2.559295
v 0.689573 2.580727 -0.929925
v 0.689573 2.744821 -0.929925
v 0.689573 2.580727 -2.559295
v 0.689573 2.744821 -2.559295
v -0.726274 2.667027 -0.832763
v -0.726274 2.831118 -0.832763
v -0.726274 2.667027 -2.656459
v -0.726274 2.831118 -2.656459
v 0.726274 2.667027 -0.832763
v 0.726274 2.831118 -0.832763
v 0.726274 2.667027 -2.656459
v 0.726274 2.831118 -2.656459
v -0.753844 2.731752 -0.715317
v -0.753844 2.895844 -0.715317
v -0.753844 2.731752 -2.749431
v -0.753844 2.895844 -2.749431
v 0.753844 2.731752 -0.715317
v 0.753844 2.895844 -0.715317
v 0.753844 2.731752 -2.749431
v 0.753844 2.895844 -2.749431
vn -1.0000 -0.0000 -0.0000
vn -0.0000 -0.0000 -1.0000
vn 1.0000 -0.0000 -0.0000
vn -0.0000 -0.0000 1.0000
vn -0.0000 -1.0000 -0.0000
vn -0.0000 1.0000 -0.0000
vt 0.375000 0.000000
vt 0.625000 0.000000
vt 0.625000 0.250000
vt 0.375000 0.250000
vt 0.625000 0.500000
vt 0.375000 0.500000
vt 0.625000 0.750000
vt 0.375000 0.750000
vt 0.625000 1.000000
vt 0.375000 1.000000
vt 0.125000 0.500000
vt 0.125000 0.750000
vt 0.875000 0.500000
vt 0.875000 0.750000
s 0
usemtl Material.056
f 1/1/1 2/2/1 4/3/1 3/4/1
f 3/4/2 4/3/2 8/5/2 7/6/2
f 7/6/3 8/5/3 6/7/3 5/8/3
f 5/8/4 6/7/4 2/9/4 1/10/4
f 3/11/5 7/6/5 5/8/5 1/12/5
f 8/5/6 4/13/6 2/14/6 6/7/6
f 9/5/6 13/13/6 15/14/6 11/7/6
f 12/8/4 11/7/4 15/9/4 16/10/4
f 16/1/1 15/2/1 13/3/1 14/4/1
f 14/11/5 10/6/5 12/8/5 16/12/5
f 10/6/3 9/5/3 11/7/3 12/8/3
f 14/4/2 13/3/2 9/5/2 10/6/2
f 17/1/1 18/2/1 20/3/1 19/4/1
f 19/4/2 20/3/2 24/5/2 23/6/2
f 23/6/3 24/5/3 22/7/3 21/8/3
f 21/8/4 22/7/4 18/9/4 17/10/4
f 19/11/5 23/6/5 21/8/5 17/12/5
f 24/5/6 20/13/6 18/14/6 22/7/6
f 25/1/1 26/2/1 28/3/1 27/4/1
f 27/4/2 28/3/2 32/5/2 31/6/2
f 31/6/3 32/5/3 30/7/3 29/8/3
f 29/8/4 30/7/4 26/9/4 25/10/4
f 27/11/5 31/6/5 29/8/5 25/12/5
f 32/5/6 28/13/6 26/14/6 30/7/6
f 33/1/1 34/2/1 36/3/1 35/4/1
f 35/4/2 36/3/2 40/5/2 39/6/2
f 39/6/3 40/5/3 38/7/3 37/8/3
f 37/8/4 38/7/4 34/9/4 33/10/4
f 35/11/5 39/6/5 37/8/5 33/12/5
f 40/5/6 36/13/6 34/14/6 38/7/6
f 41/1/1 42/2/1 44/3/1 43/4/1
f 43/4/2 44/3/2 48/5/2 47/6/2
f 47/6/3 48/5/3 46/7/3 45/8/3
f 45/8/4 46/7/4 42/9/4 41/10/4
f 43/11/5 47/6/5 45/8/5 41/12/5
f 48/5/6 44/13/6 42/14/6 46/7/6
f 49/1/1 50/2/1 52/3/1 51/4/1
f 51/4/2 52/3/2 56/5/2 55/6/2
f 55/6/3 56/5/3 54/7/3 53/8/3
f 53/8/4 54/7/4 50/9/4 49/10/4
f 51/11/5 55/6/5 53/8/5 49/12/5
f 56/5/6 52/13/6 50/14/6 54/7/6
o Cube.008
v -0.744759 -0.018225 2.607692
v -0.744759 0.144216 2.607692
v -0.744759 -0.018225 0.573575
v -0.744759 0.144216 0.573575
v 0.744759 -0.018225 2.607692
v 0.744759 0.144216 2.607692
v 0.744759 -0.018225 0.573575
v 0.744759 0.144216 0.573575
v 0.624579 2.654833 0.894474
v 0.624579 0.204942 0.894474
v 0.624579 2.654833 2.262319
v 0.624579 0.204942 2.262319
v -0.624579 2.654833 0.894474
v -0.624579 0.204942 0.894474
v -0.624579 2.654833 2.262319
v -0.624579 0.204942 2.262319
v -0.681262 0.120600 2.393081
v -0.681262 0.283041 2.393081
v -0.681262 0.120600 0.763712
v -0.681262 0.283041 0.763712
v 0.681262 0.120600 2.393081
v 0.681262 0.283041 2.393081
v 0.681262 0.120600 0.763712
v 0.681262 0.283041 0.763712
v -0.717520 0.045849 2.490244
v -0.717520 0.208288 2.490244
v -0.717520 0.045849 0.666547
v -0.717520 0.208288 0.666547
v 0.717520 0.045849 2.490244
v 0.717520 0.208288 2.490244
v 0.717520 0.045849 0.666547
v 0.717520 0.208288 0.666547
v -0.681262 2.555377 2.393081
v -0.681262 2.717818 2.393081
v -0.681262 2.555377 0.763711
v -0.681262 2.717818 0.763711
v 0.681262 2.555377 2.393081
v 0.681262 2.717818 2.393081
v 0.681262 2.555377 0.763711
v 0.681262 2.717818 0.763711
v -0.717520 2.640808 2.490243
v -0.717520 2.803249 2.490243
v -0.717520 2.640808 0.666547
v -0.717520 2.803249 0.666547
v 0.717520 2.640808 2.490243
v 0.717520 2.803249 2.490243
v 0.717520 2.640808 0.666547
v 0.717520 2.803249 0.666547
v -0.744759 2.704880 2.607691
v -0.744759 2.867321 2.607691
v -0.744759 2.704880 0.573577
v -0.744759 2.867321 0.573577
v 0.744759 2.704880 2.607691
v 0.744759 2.867321 2.607691
v 0.744759 2.704880 0.573577
v 0.744759 2.867321 0.573577
vn -1.0000 -0.0000 -0.0000
vn -0.0000 -0.0000 -1.0000
vn 1.0000 -0.0000 -0.0000
vn -0.0000 -0.0000 1.0000
vn -0.0000 -1.0000 -0.0000
vn -0.0000 1.0000 -0.0000
vt 0.375000 0.000000
vt 0.625000 0.000000
vt 0.625000 0.250000
vt 0.375000 0.250000
vt 0.625000 0.500000
vt 0.375000 0.500000
vt 0.625000 0.750000
vt 0.375000 0.750000
vt 0.625000 1.000000
vt 0.375000 1.000000
vt 0.125000 0.500000
vt 0.125000 0.750000
vt 0.875000 0.500000
vt 0.875000 0.750000
s 0
usemtl Material.057
f 57/15/7 58/16/7 60/17/7 59/18/7
f 59/18/8 60/17/8 64/19/8 63/20/8
f 63/20/9 64/19/9 62/21/9 61/22/9
f 61/22/10 62/21/10 58/23/10 57/24/10
f 59/25/11 63/20/11 61/22/11 57/26/11
f 64/19/12 60/27/12 58/28/12 62/21/12
f 65/19/12 69/27/12 71/28/12 67/21/12
f 68/22/10 67/21/10 71/23/10 72/24/10
f 72/15/7 71/16/7 69/17/7 70/18/7
f 70/25/11 66/20/11 68/22/11 72/26/11
f 66/20/9 65/19/9 67/21/9 68/22/9
f 70/18/8 69/17/8 65/19/8 66/20/8
f 73/15/7 74/16/7 76/17/7 75/18/7
f 75/18/8 76/17/8 80/19/8 79/20/8
f 79/20/9 80/19/9 78/21/9 77/22/9
f 77/22/10 78/21/10 74/23/10 73/24/10
f 75/25/11 79/20/11 77/22/11 73/26/11
f 80/19/12 76/27/12 74/28/12 78/21/12
f 81/15/7 82/16/7 84/17/7 83/18/7
f 83/18/8 84/17/8 88/19/8 87/20/8
f 87/20/9 88/19/9 86/21/9 85/22/9
f 85/22/10 86/21/10 82/23/10 81/24/10
f 83/25/11 87/20/11 85/22/11 81/26/11
f 88/19/12 84/27/12 82/28/12 86/21/12
f 89/15/7 90/16/7 92/17/7 91/18/7
f 91/18/8 92/17/8 96/19/8 95/20/8
f 95/20/9 96/19/9 94/21/9 93/22/9
f 93/22/10 94/21/10 90/23/10 89/24/10
f 91/25/11 95/20/11 93/22/11 89/26/11
f 96/19/12 92/27/12 90/28/12 94/21/12
f 97/15/7 98/16/7 100/17/7 99/18/7
f 99/18/8 100/17/8 104/19/8 103/20/8
f 103/20/9 104/19/9 102/21/9 101/22/9
f 101/22/10 102/21/10 98/23/10 97/24/10
f 99/25/11 103/20/11 101/22/11 97/26/11
f 104/19/12 100/27/12 98/28/12 102/21/12
f 105/15/7 106/16/7 108/17/7 107/18/7
f 107/18/8 108/17/8 112/19/8 111/20/8
f 111/20/9 112/19/9 110/21/9 109/22/9
f 109/22/10 110/21/10 106/23/10 105/24/10
f 107/25/11 111/20/11 109/22/11 105/26/11
f 112/19/12 108/27/12 106/28/12 110/21/12
o Cylinder
v 0.031499 2.854105 -3.192050
v 0.031499 3.130457 -3.192050
v 0.431047 2.854105 -3.130713
v 0.431047 3.130457 -3.130713
v 0.815242 2.854105 -2.949069
v 0.815242 3.130457 -2.949069
v 1.169318 2.854105 -2.654092
v 1.169318 3.130457 -2.654092
v 1.479667 2.854105 -2.257119
v 1.479667 3.130457 -2.257119
v 1.734366 2.854105 -1.773407
v 1.734366 3.130457 -1.773407
v 1.923623 2.854105 -1.221545
v 1.923623 3.130457 -1.221545
v 2.040168 2.854105 -0.622738
v 2.040168 3.130457 -0.622738
v 2.079521 2.854105 -0.000000
v 2.079521 3.130457 -0.000000
v 2.040168 2.854105 0.622738
v 2.040168 3.130457 0.622738
v 1.923623 2.854105 1.221545
v 1.923623 3.130457 1.221545
v 1.734366 2.854106 1.773407
v 1.734366 3.130458 1.773407
v 1.479667 2.854106 2.257119
v 1.479667 3.130458 2.257119
v 1.169318 2.854106 2.654091
v 1.169318 3.130458 2.654091
v 0.815242 2.854106 2.949068
v 0.815242 3.130458 2.949068
v 0.431047 2.854106 3.130713
v 0.431047 3.130458 3.130713
v 0.031499 2.854106 3.192049
v 0.031499 3.130458 3.192049
v -0.368052 2.854106 3.130713
v -0.368052 3.130458 3.130713
v -0.752247 2.854106 2.949068
v -0.752247 3.130458 2.949068
v -1.106323 2.854106 2.654091
v -1.106323 3.130458 2.654091
v -1.416672 2.854106 2.257119
v -1.416672 3.130458 2.257119
v -1.671371 2.854106 1.773407
v -1.671371 3.130458 1.773407
v -1.860628 2.854105 1.221545
v -1.860628 3.130457 1.221545
v -1.977173 2.854105 0.622738
v -1.977173 3.130457 0.622738
v -2.016524 2.854105 -0.000000
v -2.016524 3.130457 -0.000000
v -1.977173 2.854105 -0.622738
v -1.977173 3.130457 -0.622738
v -1.860628 2.854105 -1.221545
v -1.860628 3.130457 -1.221545
v -1.671371 2.854105 -1.773407
v -1.671371 3.130457 -1.773407
v -1.416672 2.854105 -2.257119
v -1.416672 3.130457 -2.257119
v -1.106323 2.854105 -2.654092
v -1.106323 3.130457 -2.654092
v -0.752247 2.854105 -2.949069
v -0.752247 3.130457 -2.949069
v -0.368052 2.854105 -3.130713
v -0.368052 3.130457 -3.130713
v 0.031499 2.990759 -2.804392
v 0.031499 3.277282 -2.804392
v 0.404761 2.990759 -2.750506
v 0.404761 3.277282 -2.750506
v 0.763681 2.990759 -2.590920
v 0.763681 3.277282 -2.590920
v 1.094461 2.990759 -2.331768
v 1.094461 3.277282 -2.331768
v 1.384393 2.990759 -1.983004
v 1.384393 3.277282 -1.983004
v 1.622335 2.990760 -1.558037
v 1.622335 3.277282 -1.558037
v 1.799142 2.990760 -1.073195
v 1.799142 3.277282 -1.073195
v 1.908020 2.990760 -0.547111
v 1.908020 3.277282 -0.547111
v 1.944782 2.990760 -0.000000
v 1.944782 3.277282 -0.000000
v 1.908020 2.990760 0.547110
v 1.908020 3.277282 0.547110
v 1.799142 2.990760 1.073194
v 1.799142 3.277282 1.073194
v 1.622335 2.990760 1.558037
v 1.622335 3.277282 1.558037
v 1.384393 2.990760 1.983003
v 1.384393 3.277282 1.983003
v 1.094461 2.990760 2.331767
v 1.094461 3.277282 2.331767
v 0.763681 2.990760 2.590920
v 0.763681 3.277282 2.590920
v 0.404761 2.990760 2.750506
v 0.404761 3.277282 2.750506
v 0.031499 2.990760 2.804392
v 0.031499 3.277282 2.804392
v -0.341766 2.990760 2.750506
v -0.341766 3.277282 2.750506
v -0.700684 2.990760 2.590920
v -0.700684 3.277282 2.590920
v -1.031466 2.990760 2.331767
v -1.031466 3.277282 2.331767
v -1.321398 2.990760 1.983003
v -1.321398 3.277282 1.983003
v -1.559340 2.990760 1.558037
v -1.559340 3.277282 1.558037
v -1.736147 2.990760 1.073194
v -1.736147 3.277282 1.073194
v -1.845024 2.990760 0.547110
v -1.845024 3.277282 0.547110
v -1.881786 2.990760 -0.000000
v -1.881786 3.277282 -0.000000
v -1.845024 2.990760 -0.547111
v -1.845024 3.277282 -0.547111
v -1.736147 2.990760 -1.073195
v -1.736147 3.277282 -1.073195
v -1.559340 2.990760 -1.558037
v -1.559340 3.277282 -1.558037
v -1.321398 2.990759 -1.983004
v -1.321398 3.277282 -1.983004
v -1.031466 2.990759 -2.331768
v -1.031466 3.277282 -2.331768
v -0.700684 2.990759 -2.590920
v -0.700684 3.277282 -2.590920
v -0.341766 2.990759 -2.750506
v -0.341766 3.277282 -2.750506
vn 0.1517 -0.0000 -0.9884
vn 0.4274 -0.0000 -0.9040
vn 0.6401 -0.0000 -0.7683
vn 0.7878 -0.0000 -0.6159
vn 0.8848 -0.0000 -0.4659
vn 0.9459 -0.0000 -0.3244
vn 0.9816 -0.0000 -0.1910
vn 0.9980 -0.0000 -0.0631
vn 0.9980 -0.0000 0.0631
vn 0.9816 -0.0000 0.1910
vn 0.9459 -0.0000 0.3244
vn 0.8848 -0.0000 0.4659
vn 0.7878 -0.0000 0.6159
vn 0.6401 -0.0000 0.7683
vn 0.4274 -0.0000 0.9040
vn 0.1517 -0.0000 0.9884
vn -0.1517 -0.0000 0.9884
vn -0.4274 -0.0000 0.9040
vn -0.6401 -0.0000 0.7683
vn -0.7878 -0.0000 0.6159
vn -0.8848 -0.0000 0.4659
vn -0.9459 -0.0000 0.3244
vn -0.9816 -0.0000 0.1910
vn -0.9980 -0.0000 0.0631
vn -0.9980 -0.0000 -0.0631
vn -0.9816 -0.0000 -0.1910
vn -0.9459 -0.0000 -0.3244
vn -0.8848 -0.0000 -0.4659
vn -0.7878 -0.0000 -0.6159
vn -0.6401 -0.0000 -0.7683
vn -0.0000 1.0000 -0.0000
vn -0.4274 -0.0000 -0.9040
vn -0.1517 -0.0000 -0.9884
vn -0.0000 -1.0000 -0.0000
vn 0.1429 -0.0000 -0.9897
vn 0.4063 -0.0000 -0.9137
vn 0.6167 -0.0000 -0.7872
vn 0.7690 -0.0000 -0.6393
vn 0.8725 -0.0000 -0.4885
vn 0.9395 -0.0000 -0.3426
vn 0.9792 -0.0000 -0.2027
vn 0.9978 -0.0000 -0.0670
vn 0.9978 -0.0000 0.0670
vn 0.9792 -0.0000 0.2027
vn 0.9395 -0.0000 0.3426
vn 0.8725 -0.0000 0.4885
vn 0.7690 -0.0000 0.6393
vn 0.6167 -0.0000 0.7872
vn 0.4063 -0.0000 0.9137
vn 0.1429 -0.0000 0.9897
vn -0.1429 -0.0000 0.9897
vn -0.4063 -0.0000 0.9137
vn -0.6167 -0.0000 0.7872
vn -0.7690 -0.0000 0.6393
vn -0.8725 -0.0000 0.4885
vn -0.9395 -0.0000 0.3426
vn -0.9792 -0.0000 0.2027
vn -0.9978 -0.0000 0.0670
vn -0.9978 -0.0000 -0.0670
vn -0.9792 -0.0000 -0.2027
vn -0.9395 -0.0000 -0.3426
vn -0.8725 -0.0000 -0.4885
vn -0.7690 -0.0000 -0.6393
vn -0.6167 -0.0000 -0.7872
vn -0.4063 -0.0000 -0.9137
vn -0.1429 -0.0000 -0.9897
vt 1.000000 0.500000
vt 1.000000 1.000000
vt 0.968750 1.000000
vt 0.968750 0.500000
vt 0.937500 1.000000
vt 0.937500 0.500000
vt 0.906250 1.000000
vt 0.906250 0.500000
vt 0.875000 1.000000
vt 0.875000 0.500000
vt 0.843750 1.000000
vt 0.843750 0.500000
vt 0.812500 1.000000
vt 0.812500 0.500000
vt 0.781250 1.000000
vt 0.781250 0.500000
vt 0.750000 1.000000
vt 0.750000 0.500000
vt 0.718750 1.000000
vt 0.718750 0.500000
vt 0.687500 1.000000
vt 0.687500 0.500000
vt 0.656250 1.000000
vt 0.656250 0.500000
vt 0.625000 1.000000
vt 0.625000 0.500000
vt 0.593750 1.000000
vt 0.593750 0.500000
vt 0.562500 1.000000
vt 0.562500 0.500000
vt 0.531250 1.000000
vt 0.531250 0.500000
vt 0.500000 1.000000
vt 0.500000 0.500000
vt 0.468750 1.000000
vt 0.468750 0.500000
vt 0.437500 1.000000
vt 0.437500 0.500000
vt 0.406250 1.000000
vt 0.406250 0.500000
vt 0.375000 1.000000
vt 0.375000 0.500000
vt 0.343750 1.000000
vt 0.343750 0.500000
vt 0.312500 1.000000
vt 0.312500 0.500000
vt 0.281250 1.000000
vt 0.281250 0.500000
vt 0.250000 1.000000
vt 0.250000 0.500000
vt 0.218750 1.000000
vt 0.218750 0.500000
vt 0.187500 1.000000
vt 0.187500 0.500000
vt 0.156250 1.000000
vt 0.156250 0.500000
vt 0.125000 1.000000
vt 0.125000 0.500000
vt 0.093750 1.000000
vt 0.093750 0.500000
vt 0.062500 1.000000
vt 0.062500 0.500000
vt 0.296822 0.485388
vt 0.250000 0.490000
vt 0.203178 0.485388
vt 0.158156 0.471731
vt 0.116663 0.449553
vt 0.080294 0.419706
vt 0.050447 0.383337
vt 0.028269 0.341844
vt 0.014612 0.296822
vt 0.010000 0.250000
vt 0.014612 0.203178
vt 0.028269 0.158156
vt 0.050447 0.116663
vt 0.080294 0.080294
vt 0.116663 0.050447
vt 0.158156 0.028269
vt 0.203178 0.014612
vt 0.250000 0.010000
vt 0.296822 0.014612
vt 0.341844 0.028269
vt 0.383337 0.050447
vt 0.419706 0.080294
vt 0.449553 0.116663
vt 0.471731 0.158156
vt 0.485388 0.203178
vt 0.490000 0.250000
vt 0.485388 0.296822
vt 0.471731 0.341844
vt 0.449553 0.383337
vt 0.419706 0.419706
vt 0.383337 0.449553
vt 0.341844 0.471731
vt 0.031250 1.000000
vt 0.031250 0.500000
vt 0.000000 1.000000
vt 0.000000 0.500000
vt 0.750000 0.490000
vt 0.796822 0.485388
vt 0.841844 0.471731
vt 0.883337 0.449553
vt 0.919706 0.419706
vt 0.949553 0.383337
vt 0.971731 0.341844
vt 0.985388 0.296822
vt 0.990000 0.250000
vt 0.985388 0.203178
vt 0.971731 0.158156
vt 0.949553 0.116663
vt 0.919706 0.080294
vt 0.883337 0.050447
vt 0.841844 0.028269
vt 0.796822 0.014612
vt 0.750000 0.010000
vt 0.703178 0.014612
vt 0.658156 0.028269
vt 0.616663 0.050447
vt 0.580294 0.080294
vt 0.550447 0.116663
vt 0.528269 0.158156
vt 0.514612 0.203178
vt 0.510000 0.250000
vt 0.514612 0.296822
vt 0.528269 0.341844
vt 0.550447 0.383337
vt 0.580294 0.419706
vt 0.616663 0.449553
vt 0.658156 0.471731
vt 0.703178 0.485388
s 0
usemtl Material.058
f 113/29/13 114/30/13 116/31/13 115/32/13
f 115/32/14 116/31/14 118/33/14 117/34/14
f 117/34/15 118/33/15 120/35/15 119/36/15
f 119/36/16 120/35/16 122/37/16 121/38/16
f 121/38/17 122/37/17 124/39/17 123/40/17
f 123/40/18 124/39/18 126/41/18 125/42/18
f 125/42/19 126/41/19 128/43/19 127/44/19
f 127/44/20 128/43/20 130/45/20 129/46/20
f 129/46/21 130/45/21 132/47/21 131/48/21
f 131/48/22 132/47/22 134/49/22 133/50/22
f 133/50/23 134/49/23 136/51/23 135/52/23
f 135/52/24 136/51/24 138/53/24 137/54/24
f 137/54/25 138/53/25 140/55/25 139/56/25
f 139/56/26 140/55/26 142/57/26 141/58/26
f 141/58/27 142/57/27 144/59/27 143/60/27
f 143/60/28 144/59/28 146/61/28 145/62/28
f 145/62/29 146/61/29 148/63/29 147/64/29
f 147/64/30 148/63/30 150/65/30 149/66/30
f 149/66/31 150/65/31 152/67/31 151/68/31
f 151/68/32 152/67/32 154/69/32 153/70/32
f 153/70/33 154/69/33 156/71/33 155/72/33
f 155/72/34 156/71/34 158/73/34 157/74/34
f 157/74/35 158/73/35 160/75/35 159/76/35
f 159/76/36 160/75/36 162/77/36 161/78/36
f 161/78/37 162/77/37 164/79/37 163/80/37
f 163/80/38 164/79/38 166/81/38 165/82/38
f 165/82/39 166/81/39 168/83/39 167/84/39
f 167/84/40 168/83/40 170/85/40 169/86/40
f 169/86/41 170/85/41 172/87/41 171/88/41
f 171/88/42 172/87/42 174/89/42 173/90/42
f 116/91/43 114/92/43 176/93/43 174/94/43 172/95/43 170/96/43 168/97/43 166/98/43 164/99/43 162/100/43 160/101/43 158/102/43 156/103/43 154/104/43 152/105/43 150/106/43 148/107/43 146/108/43 144/109/43 142/110/43 140/111/43 138/112/43 136/113/43 134/114/43 132/115/43 130/116/43 128/117/43 126/118/43 124/119/43 122/120/43 120/121/43 118/122/43
f 173/90/44 174/89/44 176/123/44 175/124/44
f 175/124/45 176/123/45 114/125/45 113/126/45
f 113/127/46 115/128/46 117/129/46 119/130/46 121/131/46 123/132/46 125/133/46 127/134/46 129/135/46 131/136/46 133/137/46 135/138/46 137/139/46 139/140/46 141/141/46 143/142/46 145/143/46 147/144/46 149/145/46 151/146/46 153/147/46 155/148/46 157/149/46 159/150/46 161/151/46 163/152/46 165/153/46 167/154/46 169/155/46 171/156/46 173/157/46 175/158/46
f 177/29/47 178/30/47 180/31/47 179/32/47
f 179/32/48 180/31/48 182/33/48 181/34/48
f 181/34/49 182/33/49 184/35/49 183/36/49
f 183/36/50 184/35/50 186/37/50 185/38/50
f 185/38/51 186/37/51 188/39/51 187/40/51
f 187/40/52 188/39/52 190/41/52 189/42/52
f 189/42/53 190/41/53 192/43/53 191/44/53
f 191/44/54 192/43/54 194/45/54 193/46/54
f 193/46/55 194/45/55 196/47/55 195/48/55
f 195/48/56 196/47/56 198/49/56 197/50/56
f 197/50/57 198/49/57 200/51/57 199/52/57
f 199/52/58 200/51/58 202/53/58 201/54/58
f 201/54/59 202/53/59 204/55/59 203/56/59
f 203/56/60 204/55/60 206/57/60 205/58/60
f 205/58/61 206/57/61 208/59/61 207/60/61
f 207/60/62 208/59/62 210/61/62 209/62/62
f 209/62/63 210/61/63 212/63/63 211/64/63
f 211/64/64 212/63/64 214/65/64 213/66/64
f 213/66/65 214/65/65 216/67/65 215/68/65
f 215/68/66 216/67/66 218/69/66 217/70/66
f 217/70/67 218/69/67 220/71/67 219/72/67
f 219/72/68 220/71/68 222/73/68 221/74/68
f 221/74/69 222/73/69 224/75/69 223/76/69
f 223/76/70 224/75/70 226/77/70 225/78/70
f 225/78/71 226/77/71 228/79/71 227/80/71
f 227/80/72 228/79/72 230/81/72 229/82/72
f 229/82/73 230/81/73 232/83/73 231/84/73
f 231/84/74 232/83/74 234/85/74 233/86/74
f 233/86/75 234/85/75 236/87/75 235/88/75
f 235/88/76 236/87/76 238/89/76 237/90/76
f 180/91/43 178/92/43 240/93/43 238/94/43 236/95/43 234/96/43 232/97/43 230/98/43 228/99/43 226/100/43 224/101/43 222/102/43 220/103/43 218/104/43 216/105/43 214/106/43 212/107/43 210/108/43 208/109/43 206/110/43 204/111/43 202/112/43 200/113/43 198/114/43 196/115/43 194/116/43 192/117/43 190/118/43 188/119/43 186/120/43 184/121/43 182/122/43
f 237/90/77 238/89/77 240/123/77 239/124/77
f 239/124/78 240/123/78 178/125/78 177/126/78
f 177/127/46 179/128/46 181/129/46 183/130/46 185/131/46 187/132/46 189/133/46 191/134/46 193/135/46 195/136/46 197/137/46 199/138/46 201/139/46 203/140/46 205/141/46 207/142/46 209/143/46 211/144/46 213/145/46 215/146/46 217/147/46 219/148/46 221/149/46 223/150/46 225/151/46 227/152/46 229/153/46 231/154/46 233/155/46 235/156/46 237/157/46 239/158/46
