# Blender 3.6.3
# www.blender.org
mtllib vidrio2.mtl
o vidrio_.001
v -7.664601 4.872229 -15.999379
v -14.231204 4.872229 -15.999380
v -7.664601 19.878969 -15.999380
v -14.231204 19.878969 -15.999381
v -7.691757 19.930847 -46.647331
v -7.691757 4.705286 -46.647331
v -7.691760 19.930847 -15.891923
v -7.691759 4.705285 -15.891922
v -7.664598 4.872230 -46.635262
v -14.231201 4.872230 -46.635262
v -7.664598 19.878969 -46.635262
v -14.231201 19.878969 -46.635262
vn -0.0000 -0.0000 -1.0000
vn -1.0000 -0.0000 -0.0000
vt 0.000000 0.000000
vt 1.000000 0.000000
vt 1.000000 1.000000
vt 0.000000 1.000000
s 0
usemtl Material.006
f 1/1/1 2/2/1 4/3/1 3/4/1
f 5/1/2 6/2/2 8/3/2 7/4/2
f 9/1/1 10/2/1 12/3/1 11/4/1
